# xmcd
#
# Track frame offsets:
#	150
#	24207
#	44385
#	66602
#	86102
#	101235
#	122210
#	145132
#	162822
#	182817
#
# Disc length: 2710 seconds
#
# Revision: 1
# Processed by: cddbd v1.4PL0 Copyright (c) Steve Scherf et al.
# Submitted via: audiograbber 1.81.02
#
DISCID=8d0a940a
DTITLE=Roberto Carlos - Amiga
DYEAR=1900
DGENRE=
TTITLE0=AMIGA
TTITLE1=COISAS QUE NAO ESQUECE
TTITLE2=FIM DE SEMANA
TTITLE3=PENSAMENTOS
TTITLE4=QUANTOS MOMENTOS BONITOS
TTITLE5=MEUS AMORES DA TELEVISAO
TTITLE6=FERA FERIDA
TTITLE7=COMO E POSSIVEL
TTITLE8=RECORDACOES
TTITLE9=COMO FOI
EXTD=
EXTT0=
EXTT1=
EXTT2=
EXTT3=
EXTT4=
EXTT5=
EXTT6=
EXTT7=
EXTT8=
EXTT9=
PLAYORDER=
